<mxfile host="Electron" agent="Mozilla/5.0 (Macintosh; Intel Mac OS X 10_15_7) AppleWebKit/537.36 (KHTML, like Gecko) draw.io/28.1.2 Chrome/138.0.7204.243 Electron/37.4.0 Safari/537.36" version="28.1.2">
  <diagram name="Page-1" id="xkjEA_2cL9KmNNRsPvyw">
    <mxGraphModel dx="1158" dy="750" grid="1" gridSize="10" guides="1" tooltips="1" connect="1" arrows="1" fold="1" page="1" pageScale="1" pageWidth="850" pageHeight="1100" math="0" shadow="0">
      <root>
        <mxCell id="0" />
        <mxCell id="1" parent="0" />
        <mxCell id="zHxEk_UgPFJiZ44oRA61-39" value="" style="rounded=0;whiteSpace=wrap;html=1;fillColor=none;dashed=1;" parent="1" vertex="1">
          <mxGeometry x="40" y="184" width="160" height="416" as="geometry" />
        </mxCell>
        <mxCell id="zHxEk_UgPFJiZ44oRA61-40" value="Sources" style="text;html=1;align=center;verticalAlign=middle;whiteSpace=wrap;rounded=0;fontSize=20;" parent="1" vertex="1">
          <mxGeometry x="95" y="144" width="60" height="30" as="geometry" />
        </mxCell>
        <mxCell id="zHxEk_UgPFJiZ44oRA61-41" value="" style="rounded=0;whiteSpace=wrap;html=1;fillColor=none;dashed=1;" parent="1" vertex="1">
          <mxGeometry x="296.5" y="174" width="680" height="446" as="geometry" />
        </mxCell>
        <mxCell id="zHxEk_UgPFJiZ44oRA61-42" value="Data flow (Layer Wise)" style="text;html=1;align=center;verticalAlign=middle;whiteSpace=wrap;rounded=0;fontSize=20;" parent="1" vertex="1">
          <mxGeometry x="525" y="144" width="225" height="30" as="geometry" />
        </mxCell>
        <mxCell id="zHxEk_UgPFJiZ44oRA61-45" value="" style="rounded=1;whiteSpace=wrap;html=1;fillColor=none;strokeColor=#d79b00;" parent="1" vertex="1">
          <mxGeometry x="325" y="234" width="155" height="366" as="geometry" />
        </mxCell>
        <mxCell id="zHxEk_UgPFJiZ44oRA61-46" value="&lt;font style=&quot;font-size: 20px;&quot;&gt;Bronze Layer&lt;/font&gt;" style="rounded=1;whiteSpace=wrap;html=1;fillColor=#ffe6cc;strokeColor=#d79b00;" parent="1" vertex="1">
          <mxGeometry x="325" y="194" width="155" height="30" as="geometry" />
        </mxCell>
        <mxCell id="zHxEk_UgPFJiZ44oRA61-47" value="" style="rounded=1;whiteSpace=wrap;html=1;fillColor=none;strokeColor=#666666;fontColor=#333333;" parent="1" vertex="1">
          <mxGeometry x="560" y="234" width="155" height="366" as="geometry" />
        </mxCell>
        <mxCell id="zHxEk_UgPFJiZ44oRA61-48" value="&lt;font style=&quot;font-size: 20px;&quot;&gt;Silver Layer&lt;/font&gt;" style="rounded=1;whiteSpace=wrap;html=1;fillColor=#f5f5f5;strokeColor=#666666;fontColor=#333333;" parent="1" vertex="1">
          <mxGeometry x="560" y="194" width="155" height="30" as="geometry" />
        </mxCell>
        <mxCell id="zHxEk_UgPFJiZ44oRA61-49" value="" style="rounded=1;whiteSpace=wrap;html=1;fillColor=none;strokeColor=#d6b656;" parent="1" vertex="1">
          <mxGeometry x="801" y="234" width="155" height="366" as="geometry" />
        </mxCell>
        <mxCell id="zHxEk_UgPFJiZ44oRA61-50" value="&lt;font style=&quot;font-size: 20px;&quot;&gt;Gold Layer&lt;/font&gt;" style="rounded=1;whiteSpace=wrap;html=1;fillColor=#fff2cc;strokeColor=#d6b656;" parent="1" vertex="1">
          <mxGeometry x="801" y="194" width="155" height="30" as="geometry" />
        </mxCell>
        <mxCell id="zHxEk_UgPFJiZ44oRA61-84" style="edgeStyle=orthogonalEdgeStyle;rounded=0;orthogonalLoop=1;jettySize=auto;html=1;entryX=0;entryY=0.5;entryDx=0;entryDy=0;" parent="1" source="zHxEk_UgPFJiZ44oRA61-51" target="zHxEk_UgPFJiZ44oRA61-77" edge="1">
          <mxGeometry relative="1" as="geometry" />
        </mxCell>
        <mxCell id="zHxEk_UgPFJiZ44oRA61-85" style="edgeStyle=orthogonalEdgeStyle;rounded=0;orthogonalLoop=1;jettySize=auto;html=1;" parent="1" source="zHxEk_UgPFJiZ44oRA61-51" target="zHxEk_UgPFJiZ44oRA61-78" edge="1">
          <mxGeometry relative="1" as="geometry" />
        </mxCell>
        <mxCell id="zHxEk_UgPFJiZ44oRA61-86" style="edgeStyle=orthogonalEdgeStyle;rounded=0;orthogonalLoop=1;jettySize=auto;html=1;entryX=0;entryY=0.5;entryDx=0;entryDy=0;" parent="1" source="zHxEk_UgPFJiZ44oRA61-51" target="zHxEk_UgPFJiZ44oRA61-79" edge="1">
          <mxGeometry relative="1" as="geometry" />
        </mxCell>
        <mxCell id="zHxEk_UgPFJiZ44oRA61-51" value="CRM" style="image;aspect=fixed;html=1;points=[];align=center;fontSize=12;image=img/lib/azure2/general/Folder_Blank.svg;" parent="1" vertex="1">
          <mxGeometry x="86" y="295" width="69" height="56.00000000000001" as="geometry" />
        </mxCell>
        <mxCell id="zHxEk_UgPFJiZ44oRA61-52" value="" style="image;aspect=fixed;html=1;points=[];align=center;fontSize=12;image=img/lib/azure2/general/Media_File.svg;" parent="1" vertex="1">
          <mxGeometry x="130.62" y="321" width="24.38" height="30" as="geometry" />
        </mxCell>
        <mxCell id="zHxEk_UgPFJiZ44oRA61-91" style="edgeStyle=orthogonalEdgeStyle;rounded=0;orthogonalLoop=1;jettySize=auto;html=1;entryX=0;entryY=0.5;entryDx=0;entryDy=0;" parent="1" source="zHxEk_UgPFJiZ44oRA61-53" target="zHxEk_UgPFJiZ44oRA61-81" edge="1">
          <mxGeometry relative="1" as="geometry" />
        </mxCell>
        <mxCell id="zHxEk_UgPFJiZ44oRA61-92" style="edgeStyle=orthogonalEdgeStyle;rounded=0;orthogonalLoop=1;jettySize=auto;html=1;" parent="1" source="zHxEk_UgPFJiZ44oRA61-53" target="zHxEk_UgPFJiZ44oRA61-82" edge="1">
          <mxGeometry relative="1" as="geometry" />
        </mxCell>
        <mxCell id="zHxEk_UgPFJiZ44oRA61-93" style="edgeStyle=orthogonalEdgeStyle;rounded=0;orthogonalLoop=1;jettySize=auto;html=1;entryX=0;entryY=0.5;entryDx=0;entryDy=0;" parent="1" source="zHxEk_UgPFJiZ44oRA61-53" target="zHxEk_UgPFJiZ44oRA61-83" edge="1">
          <mxGeometry relative="1" as="geometry" />
        </mxCell>
        <mxCell id="zHxEk_UgPFJiZ44oRA61-53" value="ERP" style="image;aspect=fixed;html=1;points=[];align=center;fontSize=12;image=img/lib/azure2/general/Folder_Blank.svg;" parent="1" vertex="1">
          <mxGeometry x="86" y="474" width="69" height="56.00000000000001" as="geometry" />
        </mxCell>
        <mxCell id="zHxEk_UgPFJiZ44oRA61-54" value="" style="image;aspect=fixed;html=1;points=[];align=center;fontSize=12;image=img/lib/azure2/general/Media_File.svg;" parent="1" vertex="1">
          <mxGeometry x="130.62" y="500" width="24.38" height="30" as="geometry" />
        </mxCell>
        <mxCell id="zHxEk_UgPFJiZ44oRA61-76" value="" style="image;aspect=fixed;html=1;points=[];align=center;fontSize=12;image=img/lib/azure2/databases/Azure_Database_PostgreSQL_Server.svg;" parent="1" vertex="1">
          <mxGeometry x="297" y="110" width="48" height="64" as="geometry" />
        </mxCell>
        <mxCell id="gFIY-f4jpLRfDKWtJCc0-7" style="edgeStyle=orthogonalEdgeStyle;rounded=0;orthogonalLoop=1;jettySize=auto;html=1;entryX=0;entryY=0.5;entryDx=0;entryDy=0;" edge="1" parent="1" source="zHxEk_UgPFJiZ44oRA61-77" target="gFIY-f4jpLRfDKWtJCc0-1">
          <mxGeometry relative="1" as="geometry" />
        </mxCell>
        <mxCell id="zHxEk_UgPFJiZ44oRA61-77" value="&lt;font&gt;crm_cust_info&lt;/font&gt;" style="rounded=1;whiteSpace=wrap;html=1;fillColor=#ffe6cc;strokeColor=#d79b00;" parent="1" vertex="1">
          <mxGeometry x="335" y="270" width="135" height="26" as="geometry" />
        </mxCell>
        <mxCell id="gFIY-f4jpLRfDKWtJCc0-8" style="edgeStyle=orthogonalEdgeStyle;rounded=0;orthogonalLoop=1;jettySize=auto;html=1;" edge="1" parent="1" source="zHxEk_UgPFJiZ44oRA61-78" target="gFIY-f4jpLRfDKWtJCc0-2">
          <mxGeometry relative="1" as="geometry" />
        </mxCell>
        <mxCell id="zHxEk_UgPFJiZ44oRA61-78" value="crm_prd_info" style="rounded=1;whiteSpace=wrap;html=1;fillColor=#ffe6cc;strokeColor=#d79b00;" parent="1" vertex="1">
          <mxGeometry x="335" y="310" width="135" height="26" as="geometry" />
        </mxCell>
        <mxCell id="gFIY-f4jpLRfDKWtJCc0-9" style="edgeStyle=orthogonalEdgeStyle;rounded=0;orthogonalLoop=1;jettySize=auto;html=1;" edge="1" parent="1" source="zHxEk_UgPFJiZ44oRA61-79" target="gFIY-f4jpLRfDKWtJCc0-3">
          <mxGeometry relative="1" as="geometry" />
        </mxCell>
        <mxCell id="zHxEk_UgPFJiZ44oRA61-79" value="&lt;font&gt;crm_sales_details&lt;/font&gt;" style="rounded=1;whiteSpace=wrap;html=1;fillColor=#ffe6cc;strokeColor=#d79b00;" parent="1" vertex="1">
          <mxGeometry x="335" y="350" width="135" height="26" as="geometry" />
        </mxCell>
        <mxCell id="gFIY-f4jpLRfDKWtJCc0-10" style="edgeStyle=orthogonalEdgeStyle;rounded=0;orthogonalLoop=1;jettySize=auto;html=1;" edge="1" parent="1" source="zHxEk_UgPFJiZ44oRA61-81" target="gFIY-f4jpLRfDKWtJCc0-4">
          <mxGeometry relative="1" as="geometry" />
        </mxCell>
        <mxCell id="zHxEk_UgPFJiZ44oRA61-81" value="&lt;font&gt;erp_cust_az12&lt;/font&gt;" style="rounded=1;whiteSpace=wrap;html=1;fillColor=#ffe6cc;strokeColor=#d79b00;" parent="1" vertex="1">
          <mxGeometry x="335" y="450" width="135" height="26" as="geometry" />
        </mxCell>
        <mxCell id="gFIY-f4jpLRfDKWtJCc0-11" style="edgeStyle=orthogonalEdgeStyle;rounded=0;orthogonalLoop=1;jettySize=auto;html=1;" edge="1" parent="1" source="zHxEk_UgPFJiZ44oRA61-82" target="gFIY-f4jpLRfDKWtJCc0-5">
          <mxGeometry relative="1" as="geometry" />
        </mxCell>
        <mxCell id="zHxEk_UgPFJiZ44oRA61-82" value="erp_loc_a101" style="rounded=1;whiteSpace=wrap;html=1;fillColor=#ffe6cc;strokeColor=#d79b00;" parent="1" vertex="1">
          <mxGeometry x="335" y="490" width="135" height="26" as="geometry" />
        </mxCell>
        <mxCell id="gFIY-f4jpLRfDKWtJCc0-12" style="edgeStyle=orthogonalEdgeStyle;rounded=0;orthogonalLoop=1;jettySize=auto;html=1;" edge="1" parent="1" source="zHxEk_UgPFJiZ44oRA61-83" target="gFIY-f4jpLRfDKWtJCc0-6">
          <mxGeometry relative="1" as="geometry" />
        </mxCell>
        <mxCell id="zHxEk_UgPFJiZ44oRA61-83" value="&lt;font&gt;erp_px_cat_g1v2&lt;/font&gt;" style="rounded=1;whiteSpace=wrap;html=1;fillColor=#ffe6cc;strokeColor=#d79b00;" parent="1" vertex="1">
          <mxGeometry x="335" y="530" width="135" height="26" as="geometry" />
        </mxCell>
        <mxCell id="gFIY-f4jpLRfDKWtJCc0-17" style="rounded=0;orthogonalLoop=1;jettySize=auto;html=1;exitX=1;exitY=0.5;exitDx=0;exitDy=0;entryX=0;entryY=0.5;entryDx=0;entryDy=0;jumpStyle=gap;" edge="1" parent="1" source="gFIY-f4jpLRfDKWtJCc0-1" target="gFIY-f4jpLRfDKWtJCc0-14">
          <mxGeometry relative="1" as="geometry" />
        </mxCell>
        <mxCell id="gFIY-f4jpLRfDKWtJCc0-1" value="&lt;font&gt;crm_cust_info&lt;/font&gt;" style="rounded=1;whiteSpace=wrap;html=1;fillColor=#f5f5f5;strokeColor=#666666;fontColor=#333333;" vertex="1" parent="1">
          <mxGeometry x="570" y="270" width="135" height="26" as="geometry" />
        </mxCell>
        <mxCell id="gFIY-f4jpLRfDKWtJCc0-20" style="rounded=0;orthogonalLoop=1;jettySize=auto;html=1;exitX=1;exitY=0.25;exitDx=0;exitDy=0;entryX=0;entryY=0.5;entryDx=0;entryDy=0;" edge="1" parent="1" source="gFIY-f4jpLRfDKWtJCc0-2" target="gFIY-f4jpLRfDKWtJCc0-15">
          <mxGeometry relative="1" as="geometry" />
        </mxCell>
        <mxCell id="gFIY-f4jpLRfDKWtJCc0-2" value="crm_prd_info" style="rounded=1;whiteSpace=wrap;html=1;fillColor=#f5f5f5;strokeColor=#666666;fontColor=#333333;" vertex="1" parent="1">
          <mxGeometry x="570" y="310" width="135" height="26" as="geometry" />
        </mxCell>
        <mxCell id="gFIY-f4jpLRfDKWtJCc0-16" style="rounded=0;orthogonalLoop=1;jettySize=auto;html=1;exitX=1;exitY=0.5;exitDx=0;exitDy=0;jumpStyle=gap;" edge="1" parent="1" source="gFIY-f4jpLRfDKWtJCc0-3" target="gFIY-f4jpLRfDKWtJCc0-13">
          <mxGeometry relative="1" as="geometry" />
        </mxCell>
        <mxCell id="gFIY-f4jpLRfDKWtJCc0-3" value="&lt;font&gt;crm_sales_details&lt;/font&gt;" style="rounded=1;whiteSpace=wrap;html=1;fillColor=#f5f5f5;strokeColor=#666666;fontColor=#333333;" vertex="1" parent="1">
          <mxGeometry x="570" y="350" width="135" height="26" as="geometry" />
        </mxCell>
        <mxCell id="gFIY-f4jpLRfDKWtJCc0-18" style="rounded=0;orthogonalLoop=1;jettySize=auto;html=1;exitX=1;exitY=0.5;exitDx=0;exitDy=0;entryX=0;entryY=0.5;entryDx=0;entryDy=0;jumpStyle=gap;" edge="1" parent="1" source="gFIY-f4jpLRfDKWtJCc0-4" target="gFIY-f4jpLRfDKWtJCc0-14">
          <mxGeometry relative="1" as="geometry" />
        </mxCell>
        <mxCell id="gFIY-f4jpLRfDKWtJCc0-4" value="&lt;font&gt;erp_cust_az12&lt;/font&gt;" style="rounded=1;whiteSpace=wrap;html=1;fillColor=#f5f5f5;strokeColor=#666666;fontColor=#333333;" vertex="1" parent="1">
          <mxGeometry x="570" y="450" width="135" height="26" as="geometry" />
        </mxCell>
        <mxCell id="gFIY-f4jpLRfDKWtJCc0-19" style="rounded=0;orthogonalLoop=1;jettySize=auto;html=1;exitX=1;exitY=0.5;exitDx=0;exitDy=0;entryX=0;entryY=0.5;entryDx=0;entryDy=0;jumpStyle=gap;" edge="1" parent="1" source="gFIY-f4jpLRfDKWtJCc0-5" target="gFIY-f4jpLRfDKWtJCc0-14">
          <mxGeometry relative="1" as="geometry" />
        </mxCell>
        <mxCell id="gFIY-f4jpLRfDKWtJCc0-5" value="erp_loc_a101" style="rounded=1;whiteSpace=wrap;html=1;fillColor=#f5f5f5;strokeColor=#666666;fontColor=#333333;" vertex="1" parent="1">
          <mxGeometry x="570" y="490" width="135" height="26" as="geometry" />
        </mxCell>
        <mxCell id="gFIY-f4jpLRfDKWtJCc0-21" style="rounded=0;orthogonalLoop=1;jettySize=auto;html=1;exitX=1;exitY=0.5;exitDx=0;exitDy=0;entryX=0;entryY=0.5;entryDx=0;entryDy=0;" edge="1" parent="1" source="gFIY-f4jpLRfDKWtJCc0-6" target="gFIY-f4jpLRfDKWtJCc0-15">
          <mxGeometry relative="1" as="geometry" />
        </mxCell>
        <mxCell id="gFIY-f4jpLRfDKWtJCc0-6" value="&lt;font&gt;erp_px_cat_g1v2&lt;/font&gt;" style="rounded=1;whiteSpace=wrap;html=1;fillColor=#f5f5f5;strokeColor=#666666;fontColor=#333333;" vertex="1" parent="1">
          <mxGeometry x="570" y="530" width="135" height="26" as="geometry" />
        </mxCell>
        <mxCell id="gFIY-f4jpLRfDKWtJCc0-13" value="fact_sales" style="rounded=1;whiteSpace=wrap;html=1;fillColor=#f5f5f5;strokeColor=#666666;fontColor=#333333;" vertex="1" parent="1">
          <mxGeometry x="811" y="295" width="135" height="26" as="geometry" />
        </mxCell>
        <mxCell id="gFIY-f4jpLRfDKWtJCc0-14" value="dim_customer" style="rounded=1;whiteSpace=wrap;html=1;fillColor=#f5f5f5;strokeColor=#666666;fontColor=#333333;" vertex="1" parent="1">
          <mxGeometry x="811" y="400" width="135" height="26" as="geometry" />
        </mxCell>
        <mxCell id="gFIY-f4jpLRfDKWtJCc0-15" value="dim_product" style="rounded=1;whiteSpace=wrap;html=1;fillColor=#f5f5f5;strokeColor=#666666;fontColor=#333333;" vertex="1" parent="1">
          <mxGeometry x="811" y="504" width="135" height="26" as="geometry" />
        </mxCell>
      </root>
    </mxGraphModel>
  </diagram>
</mxfile>
